HIERARCHY
ROOT Storm:Solving:Root
{
	OFFSET 0.000000 0.000000 0.000000
	CHANNELS 6 Xposition Yposition Zposition Xrotation Yrotation Zrotation
	JOINT Storm:Solving:L_Clav
	{
		OFFSET 0.000000 0.000000 0.000000
		CHANNELS 6 Xposition Yposition Zposition Xrotation Yrotation Zrotation
		JOINT Storm:Solving:L_Scapula_Joint
		{
			OFFSET 4.000000 0.000000 0.000000
			CHANNELS 6 Xposition Yposition Zposition Xrotation Yrotation Zrotation
			JOINT Storm:Solving:L_Shoulder_Joint
			{
				OFFSET 4.002680 -11.084217 10.770057
				CHANNELS 6 Xposition Yposition Zposition Xrotation Yrotation Zrotation
				JOINT Storm:Solving:L_Elbow_Joint
				{
					OFFSET 2.147804 -15.161016 -8.035206
					CHANNELS 6 Xposition Yposition Zposition Xrotation Yrotation Zrotation
					JOINT Storm:Solving:L_Wrist_Joint
					{
						OFFSET -2.240269 -20.029085 -9.040075
						CHANNELS 6 Xposition Yposition Zposition Xrotation Yrotation Zrotation
						JOINT Storm:Solving:L_Paw_Joint
						{
							OFFSET 0.706234 -5.721245 1.834930
							CHANNELS 6 Xposition Yposition Zposition Xrotation Yrotation Zrotation
							JOINT Storm:Solving:NewBone_4
							{
								OFFSET 1.343818 -3.510090 4.244948
								CHANNELS 6 Xposition Yposition Zposition Xrotation Yrotation Zrotation
								End Site
								{
									OFFSET 5.410949 0.263100 -1.672891
								}
							}
						}
					}
				}
			}
		}
	}
	JOINT Storm:Solving:R_Clav
	{
		OFFSET 0.000000 0.000000 0.000000
		CHANNELS 6 Xposition Yposition Zposition Xrotation Yrotation Zrotation
		JOINT Storm:Solving:R_Scapula_Joint
		{
			OFFSET -4.000000 -0.000000 0.000001
			CHANNELS 6 Xposition Yposition Zposition Xrotation Yrotation Zrotation
			JOINT Storm:Solving:NewBone_3
			{
				OFFSET -4.614829 -11.686039 9.889529
				CHANNELS 6 Xposition Yposition Zposition Xrotation Yrotation Zrotation
				JOINT Storm:Solving:R_Elbow_Joint
				{
					OFFSET -0.160743 -16.404385 -5.491840
					CHANNELS 6 Xposition Yposition Zposition Xrotation Yrotation Zrotation
					JOINT Storm:Solving:R_Wrist_Joint
					{
						OFFSET 2.412016 -21.935680 1.190893
						CHANNELS 6 Xposition Yposition Zposition Xrotation Yrotation Zrotation
						JOINT Storm:Solving:R_Paw_Joint
						{
							OFFSET -0.535018 -3.351765 3.806499
							CHANNELS 6 Xposition Yposition Zposition Xrotation Yrotation Zrotation
							JOINT Storm:Solving:NewBone_5
							{
								OFFSET -0.877549 -2.975662 5.252175
								CHANNELS 6 Xposition Yposition Zposition Xrotation Yrotation Zrotation
								End Site
								{
									OFFSET 5.926299 0.585030 1.321637
								}
							}
						}
					}
				}
			}
		}
	}
	JOINT Storm:Solving:Root_To_Spine_Dummy
	{
		OFFSET 0.000000 0.000000 0.000000
		CHANNELS 6 Xposition Yposition Zposition Xrotation Yrotation Zrotation
		JOINT Storm:Solving:Spine1
		{
			OFFSET 0.000000 0.000000 -3.827275
			CHANNELS 6 Xposition Yposition Zposition Xrotation Yrotation Zrotation
			JOINT Storm:Solving:Spine2
			{
				OFFSET 0.000001 0.000000 -16.939260
				CHANNELS 6 Xposition Yposition Zposition Xrotation Yrotation Zrotation
				JOINT Storm:Solving:Spine3
				{
					OFFSET 0.000002 0.000000 -14.393892
					CHANNELS 6 Xposition Yposition Zposition Xrotation Yrotation Zrotation
					JOINT Storm:Solving:Pelvis_Root
					{
						OFFSET 0.000002 0.000000 -14.393890
						CHANNELS 6 Xposition Yposition Zposition Xrotation Yrotation Zrotation
						JOINT Storm:Solving:L_Pelvis
						{
							OFFSET 0.000000 0.000000 0.000000
							CHANNELS 6 Xposition Yposition Zposition Xrotation Yrotation Zrotation
							JOINT Storm:Solving:LFemur_Joint
							{
								OFFSET 8.318080 -6.780918 -6.728058
								CHANNELS 6 Xposition Yposition Zposition Xrotation Yrotation Zrotation
								JOINT Storm:Solving:LTibia_Joint
								{
									OFFSET 4.762119 -18.232958 12.109562
									CHANNELS 6 Xposition Yposition Zposition Xrotation Yrotation Zrotation
									JOINT Storm:Solving:LAnkle_Joint
									{
										OFFSET 1.748854 -18.426313 -12.690502
										CHANNELS 6 Xposition Yposition Zposition Xrotation Yrotation Zrotation
										JOINT Storm:Solving:LFoot_Joint
										{
											OFFSET 2.893215 -10.324425 3.420891
											CHANNELS 6 Xposition Yposition Zposition Xrotation Yrotation Zrotation
											JOINT Storm:Solving:LFoot_End
											{
												OFFSET 3.317142 -1.153622 6.178677
												CHANNELS 6 Xposition Yposition Zposition Xrotation Yrotation Zrotation
												End Site
												{
													OFFSET 6.285072 0.685661 -3.246243
												}
											}
										}
									}
								}
							}
						}
						JOINT Storm:Solving:R_Pelvis
						{
							OFFSET 0.000000 0.000000 0.000000
							CHANNELS 6 Xposition Yposition Zposition Xrotation Yrotation Zrotation
							JOINT Storm:Solving:RFemur_Joint
							{
								OFFSET -8.082922 -7.104603 -6.553699
								CHANNELS 6 Xposition Yposition Zposition Xrotation Yrotation Zrotation
								JOINT Storm:Solving:RTibia_Joint
								{
									OFFSET -3.034004 -18.950596 11.551186
									CHANNELS 6 Xposition Yposition Zposition Xrotation Yrotation Zrotation
									JOINT Storm:Solving:RAnkle_Joint
									{
										OFFSET 0.163292 -19.936810 -10.210636
										CHANNELS 6 Xposition Yposition Zposition Xrotation Yrotation Zrotation
										JOINT Storm:Solving:RFoot_Joint
										{
											OFFSET -0.793680 -9.967937 0.101715
											CHANNELS 6 Xposition Yposition Zposition Xrotation Yrotation Zrotation
											JOINT Storm:Solving:RFoot_End
											{
												OFFSET -4.434014 -1.490955 4.525612
												CHANNELS 6 Xposition Yposition Zposition Xrotation Yrotation Zrotation
												End Site
												{
													OFFSET -4.697033 0.328136 -4.493862
												}
											}
										}
									}
								}
							}
						}
					}
				}
			}
		}
	}
	JOINT Storm:Solving:Root_To_Neck
	{
		OFFSET 0.000000 0.000000 0.000000
		CHANNELS 6 Xposition Yposition Zposition Xrotation Yrotation Zrotation
		JOINT Storm:Solving:Neck1
		{
			OFFSET 0.000000 4.185541 5.729186
			CHANNELS 6 Xposition Yposition Zposition Xrotation Yrotation Zrotation
			JOINT Storm:Solving:Neck2
			{
				OFFSET 2.125778 5.862305 7.100437
				CHANNELS 6 Xposition Yposition Zposition Xrotation Yrotation Zrotation
				JOINT Storm:Solving:Head
				{
					OFFSET -4.381103 5.689912 1.801980
					CHANNELS 6 Xposition Yposition Zposition Xrotation Yrotation Zrotation
					JOINT Storm:Solving:Head_End
					{
						OFFSET -9.753127 2.579648 15.562063
						CHANNELS 6 Xposition Yposition Zposition Xrotation Yrotation Zrotation
						End Site
						{
							OFFSET -4.085257 17.259090 -5.421284
						}
					}
				}
			}
		}
	}
	JOINT Storm:Solving:R_Clav_1
	{
		OFFSET 0.000000 0.000000 0.000000
		CHANNELS 6 Xposition Yposition Zposition Xrotation Yrotation Zrotation
		End Site
		{
			OFFSET 0.000000 0.010000 -0.000000
		}
	}
}
MOTION
Frames: 5
Frame Time: 0.008333
-4.911768 58.245419 -202.284241 -1.519447 -14.263134 -1.303899 -0.000003 -0.000000 -0.000001 2.217964 -0.248071 -6.378630 4.000004 -0.000002 0.000004 1.155237 -1.037585 3.604087 4.002677 -11.084227 10.770071 -3.656230 -1.714760 -3.707503 2.147802 -15.161012 -8.035200 -21.136358 3.334170 9.911242 -2.240270 -20.029074 -9.040099 7.101175 -2.362816 8.013886 0.706234 -5.721254 1.834935 4.194677 0.156263 -1.302554 1.343818 -3.510098 4.244944 0.000007 0.000000 -0.000000 -0.000003 -0.000000 -0.000001 4.681749 1.141287 13.669784 -3.999995 -0.000003 0.000005 5.109142 -3.873823 -24.265453 -4.614824 -11.686028 9.889516 3.150487 2.159849 5.018019 -0.160743 -16.404383 -5.491850 -1.075582 -0.115845 0.052856 2.412014 -21.935684 1.190910 3.319868 6.562542 3.503135 -0.535015 -3.351763 3.806504 -9.581824 -0.762054 -2.202190 -0.877551 -2.975662 5.252168 -0.000002 -0.000000 0.000001 -0.000003 -0.000000 -0.000001 -0.000000 0.000000 -0.000000 -0.000002 -0.000001 -3.827286 -4.310860 0.064152 -0.269481 0.000005 0.000003 -16.939262 6.929427 18.333223 -38.417813 0.000002 -0.000003 -14.393880 2.228913 -18.336211 46.049682 0.000003 0.000008 -14.393887 3.060631 5.854159 -17.922242 -0.000002 0.000003 0.000008 -0.000002 -0.000001 -0.000004 8.318074 -6.780926 -6.728054 -9.144312 9.230891 6.945095 4.762107 -18.232960 12.109582 1.957196 0.424202 -0.362609 1.748853 -18.426323 -12.690499 -17.051839 -3.224212 7.883325 2.893211 -10.324438 3.420885 17.855784 0.490006 -9.333512 3.317136 -1.153633 6.178693 -0.000000 -0.000001 0.000001 0.000005 0.000007 0.000008 -0.000003 0.000003 -0.000003 -8.082905 -7.104612 -6.553719 8.900223 7.395978 -3.791010 -3.034005 -18.950615 11.551183 8.274095 -0.541673 1.431367 0.163294 -19.936838 -10.210665 4.462238 0.026214 6.049053 -0.793683 -9.967959 0.101694 2.904893 -0.132267 2.779579 -4.434017 -1.490955 4.525647 -0.000000 0.000005 0.000001 -0.000003 -0.000000 -0.000001 0.000002 0.000000 0.000000 0.000003 4.185560 5.729201 -8.022492 1.196395 1.734641 2.125785 5.862290 7.100431 19.087727 11.529078 -15.620620 -4.381099 5.689906 1.801963 -11.149255 -11.512842 7.038857 -9.753135 2.579651 15.562053 0.000000 0.000001 0.000003 -0.000003 -0.000000 -0.000001 -0.000000 0.000000 -0.000000 
-4.922678 58.258404 -202.201981 -1.469005 -14.356998 -1.261038 -0.000002 0.000000 -0.000017 2.232954 -0.254382 -6.495933 3.999997 0.000000 0.000029 1.191107 -1.056754 3.737421 4.002680 -11.084200 10.770041 -3.672487 -1.678975 -3.756764 2.147791 -15.161021 -8.035197 -21.144526 3.445332 9.920437 -2.240261 -20.029083 -9.040062 7.137363 -2.402926 8.067800 0.706236 -5.721259 1.834924 4.077191 0.153186 -1.265950 1.343817 -3.510090 4.244963 0.000005 0.000000 -0.000000 -0.000002 0.000000 -0.000017 4.700419 1.147584 13.689577 -3.999992 0.000001 0.000008 5.127081 -3.904987 -24.312156 -4.614827 -11.686039 9.889535 3.106644 2.187364 4.989340 -0.160748 -16.404383 -5.491850 -1.107210 -0.119267 0.054377 2.412017 -21.935688 1.190882 3.406902 6.636281 3.518271 -0.535025 -3.351749 3.806486 -9.656467 -0.766524 -2.219780 -0.877550 -2.975677 5.252176 -0.000000 0.000000 0.000001 -0.000002 0.000000 -0.000017 0.000000 -0.000000 0.000000 -0.000000 0.000003 -3.827285 -4.359225 0.062032 -0.263214 -0.000002 0.000014 -16.939264 6.901983 18.389227 -38.527536 0.000002 -0.000005 -14.393891 2.199269 -18.324581 46.196924 0.000001 0.000002 -14.393871 3.137333 5.899008 -18.021567 0.000002 0.000005 -0.000008 -0.000002 0.000000 0.000001 8.318078 -6.780906 -6.728070 -9.108980 9.190606 6.938269 4.762118 -18.232925 12.109562 2.121660 0.459249 -0.393714 1.748852 -18.426294 -12.690508 -17.172637 -3.255475 7.904728 2.893234 -10.324418 3.420906 17.827168 0.491558 -9.318555 3.317137 -1.153622 6.178692 0.000001 -0.000003 0.000000 0.000006 0.000011 -0.000011 0.000001 0.000003 -0.000000 -8.082925 -7.104584 -6.553683 9.015349 7.384559 -3.799029 -3.033996 -18.950588 11.551179 8.244611 -0.540115 1.426137 0.163297 -19.936834 -10.210638 4.682172 0.022815 6.150196 -0.793676 -9.967949 0.101711 2.750938 -0.128797 2.632251 -4.434006 -1.490949 4.525639 0.000002 0.000003 0.000001 -0.000002 0.000000 -0.000017 0.000002 0.000000 -0.000000 -0.000005 4.185528 5.729197 -7.990029 1.151339 1.752897 2.125782 5.862290 7.100442 19.298049 11.589404 -15.772744 -4.381098 5.689918 1.801999 -10.874277 -11.866471 7.021676 -9.753137 2.579664 15.562080 -0.000000 0.000001 0.000003 -0.000002 0.000000 -0.000017 0.000000 0.000000 0.000000 
-4.931995 58.266357 -202.118774 -1.424326 -14.460316 -1.238458 0.000001 0.000001 -0.000009 2.269481 -0.256645 -6.448553 3.999999 -0.000001 0.000016 1.216527 -1.063603 3.676671 4.002679 -11.084215 10.770071 -3.669669 -1.730111 -3.776327 2.147809 -15.161016 -8.035200 -21.200711 3.618121 9.988209 -2.240270 -20.029097 -9.040044 7.203779 -2.415621 8.070955 0.706240 -5.721234 1.834931 3.957683 0.149981 -1.228713 1.343824 -3.510093 4.244955 0.000005 0.000000 -0.000001 0.000001 0.000001 -0.000009 4.694561 1.154049 13.780366 -3.999995 -0.000010 -0.000020 5.126582 -3.956945 -24.427080 -4.614819 -11.686043 9.889521 3.100620 2.232081 4.977799 -0.160737 -16.404390 -5.491843 -1.125638 -0.121262 0.055263 2.412015 -21.935682 1.190904 3.494541 6.740534 3.541585 -0.535029 -3.351748 3.806500 -9.780693 -0.773910 -2.249067 -0.877536 -2.975675 5.252146 0.000005 0.000000 0.000002 0.000001 0.000001 -0.000009 0.000000 -0.000000 -0.000000 0.000003 -0.000000 -3.827271 -4.389130 0.060601 -0.241334 -0.000003 0.000005 -16.939253 6.828296 18.428282 -38.459416 -0.000001 0.000005 -14.393905 2.149188 -18.240952 46.244414 -0.000003 0.000012 -14.393911 3.125136 5.922439 -18.131608 0.000001 0.000008 0.000004 -0.000001 0.000001 0.000005 8.318100 -6.780916 -6.728055 -8.979939 9.161176 6.847836 4.762116 -18.232954 12.109566 2.260313 0.488727 -0.420010 1.748854 -18.426325 -12.690510 -17.312607 -3.291282 8.003076 2.893237 -10.324438 3.420863 17.810666 0.492448 -9.309933 3.317145 -1.153617 6.178673 0.000002 -0.000001 -0.000000 0.000004 0.000013 0.000011 0.000000 0.000003 -0.000000 -8.082913 -7.104605 -6.553688 9.165078 7.349059 -3.870957 -3.034002 -18.950586 11.551229 8.258764 -0.540867 1.428648 0.163299 -19.936808 -10.210619 4.786923 0.014147 6.132963 -0.793706 -9.967922 0.101708 2.733408 -0.128369 2.615474 -4.434017 -1.490946 4.525631 0.000002 0.000001 0.000002 0.000001 0.000001 -0.000009 -0.000000 -0.000001 0.000001 -0.000005 4.185548 5.729208 -7.966745 1.104064 1.775886 2.125788 5.862313 7.100440 19.515182 11.652848 -15.912563 -4.381101 5.689899 1.801980 -10.620690 -12.156926 7.069070 -9.753121 2.579641 15.562102 -0.000002 0.000002 -0.000002 0.000001 0.000001 -0.000009 0.000000 -0.000000 -0.000000 
-4.935784 58.272472 -202.036194 -1.367534 -14.573313 -1.212159 -0.000003 0.000003 0.000002 2.300999 -0.260649 -6.459254 3.999996 -0.000002 0.000004 1.248635 -1.075479 3.687924 4.002679 -11.084212 10.770046 -3.632505 -1.836041 -3.877437 2.147805 -15.161004 -8.035222 -21.358944 3.844560 10.139861 -2.240272 -20.029112 -9.040059 7.330045 -2.416474 8.109916 0.706232 -5.721241 1.834915 3.782543 0.145141 -1.174157 1.343825 -3.510086 4.244936 0.000005 -0.000000 0.000000 -0.000003 0.000003 0.000002 4.694295 1.159739 13.846423 -3.999996 -0.000001 -0.000006 5.144179 -3.949460 -24.530945 -4.614831 -11.686038 9.889539 3.088425 2.293820 4.973238 -0.160741 -16.404387 -5.491838 -1.164928 -0.125515 0.057148 2.412015 -21.935694 1.190903 3.589605 6.760848 3.556375 -0.535019 -3.351753 3.806497 -9.909402 -0.781497 -2.279423 -0.877545 -2.975663 5.252168 0.000003 0.000003 -0.000000 -0.000003 0.000003 0.000002 0.000000 -0.000001 0.000000 -0.000002 0.000004 -3.827268 -4.414585 0.097739 -0.217608 0.000002 0.000009 -16.939274 6.768677 18.455625 -38.456605 -0.000001 0.000003 -14.393895 2.087042 -18.217960 46.245165 -0.000002 0.000005 -14.393894 3.181634 5.931870 -18.196317 -0.000003 -0.000009 0.000008 -0.000002 -0.000001 -0.000000 8.318086 -6.780920 -6.728078 -8.906899 9.124029 6.837978 4.762105 -18.232933 12.109561 2.388691 0.515962 -0.444420 1.748856 -18.426310 -12.690490 -17.433459 -3.322625 8.035685 2.893233 -10.324417 3.420889 17.756337 0.495361 -9.281527 3.317149 -1.153625 6.178672 0.000001 -0.000001 -0.000000 -0.000000 -0.000003 0.000004 0.000000 0.000003 -0.000002 -8.082919 -7.104599 -6.553684 9.272124 7.429348 -3.874130 -3.034004 -18.950615 11.551167 8.237984 -0.539764 1.424962 0.163303 -19.936785 -10.210667 4.916480 0.002301 6.102943 -0.793670 -9.967946 0.101717 2.752506 -0.128830 2.633753 -4.434021 -1.490951 4.525637 -0.000000 0.000001 0.000002 -0.000003 0.000003 0.000002 0.000003 -0.000000 -0.000001 0.000007 4.185555 5.729191 -7.951045 1.053638 1.803626 2.125780 5.862311 7.100428 19.726225 11.713401 -16.049380 -4.381106 5.689910 1.801960 -10.385516 -12.451281 7.092399 -9.753126 2.579647 15.562054 -0.000001 0.000004 -0.000001 -0.000003 0.000003 0.000002 0.000000 0.000000 -0.000000 
-4.940615 58.272388 -201.951218 -1.309188 -14.695355 -1.193179 -0.000008 -0.000001 -0.000011 2.322487 -0.261579 -6.422604 3.999992 -0.000006 -0.000007 1.254309 -0.959830 3.653703 4.002679 -11.084216 10.770053 -3.592279 -1.964306 -4.013886 2.147802 -15.161016 -8.035202 -21.455414 3.905968 10.269820 -2.240270 -20.029097 -9.040086 7.341733 -2.411561 8.173448 0.706232 -5.721252 1.834919 3.767606 0.144724 -1.169505 1.343818 -3.510090 4.244924 0.000005 0.000000 -0.000001 -0.000008 -0.000001 -0.000011 4.698835 1.162024 13.859731 -3.999998 0.000001 0.000018 5.156256 -3.943429 -24.571933 -4.614832 -11.686033 9.889519 3.066387 2.355865 4.965093 -0.160747 -16.404392 -5.491841 -1.174904 -0.126595 0.057627 2.412014 -21.935686 1.190900 3.593262 6.814470 3.537235 -0.535012 -3.351770 3.806504 -9.933130 -0.782888 -2.285021 -0.877548 -2.975666 5.252166 0.000001 -0.000000 0.000001 -0.000008 -0.000001 -0.000011 -0.000000 -0.000000 -0.000000 -0.000007 -0.000000 -3.827280 -4.435276 0.131099 -0.214087 -0.000003 -0.000000 -16.939268 6.697344 18.497973 -38.442494 -0.000004 0.000007 -14.393902 2.042018 -18.183505 46.242252 0.000005 0.000009 -14.393888 3.209291 5.921704 -18.213994 -0.000000 0.000010 -0.000000 -0.000001 -0.000001 -0.000000 8.318095 -6.780924 -6.728070 -8.794027 9.041588 6.785721 4.762120 -18.232969 12.109551 2.519695 0.543690 -0.469393 1.748845 -18.426308 -12.690512 -17.559682 -3.355353 8.154037 2.893235 -10.324418 3.420894 17.735010 0.496500 -9.270377 3.317142 -1.153631 6.178687 0.000003 -0.000003 -0.000001 0.000002 0.000016 -0.000000 -0.000001 0.000003 -0.000007 -8.082907 -7.104604 -6.553701 9.372667 7.454360 -3.930468 -3.034008 -18.950592 11.551182 8.218464 -0.538730 1.421504 0.163291 -19.936810 -10.210664 5.023900 -0.006040 6.093034 -0.793694 -9.967949 0.101717 2.815986 -0.130304 2.694495 -4.434003 -1.490958 4.525617 0.000001 -0.000000 -0.000001 -0.000008 -0.000001 -0.000011 0.000003 -0.000000 0.000001 0.000001 4.185548 5.729187 -7.925459 0.986266 1.839100 2.125771 5.862320 7.100433 19.901078 11.750904 -16.247748 -4.381105 5.689914 1.801979 -10.108178 -12.702561 7.213360 -9.753112 2.579637 15.562058 -0.000000 0.000002 0.000000 -0.000008 -0.000001 -0.000011 -0.000000 0.000000 -0.000000 
